<?xml version="1.0" encoding="UTF-8"?>
<svg version="1.1" xmlns="http://www.w3.org/2000/svg" width="404" height="436">
<path d="M0 0 C11.60721279 9.90645804 18.8986285 23.0895346 20.24633789 38.35717773 C22.3586731 87.15987695 -2.69927018 132.00356242 -26.38720703 173.06787109 C-27.92880941 175.74898049 -29.45364171 178.43885299 -30.97265625 181.1328125 C-31.95257747 182.86619506 -32.93304187 184.59927067 -33.9140625 186.33203125 C-34.62888794 187.59503052 -34.62888794 187.59503052 -35.3581543 188.88354492 C-38.09895089 193.68187358 -40.93580047 198.40230818 -43.875 203.08203125 C-44.52605713 204.12423828 -45.17711426 205.16644531 -45.84790039 206.24023438 C-47.11779697 208.2628693 -48.40038463 210.27760539 -49.69702148 212.28320312 C-50.55662476 213.6531543 -50.55662476 213.6531543 -51.43359375 215.05078125 C-51.94897705 215.85451172 -52.46436035 216.65824219 -52.99536133 217.48632812 C-54.22238342 220.41970165 -53.91877554 221.83336226 -52.9765625 224.83203125 C-51.83689743 227.24778015 -50.65941718 229.59775154 -49.4140625 231.95703125 C-41.86496138 246.72559342 -35.76372084 261.65721199 -31.9765625 277.83203125 C-31.79037354 278.57477295 -31.60418457 279.31751465 -31.41235352 280.08276367 C-29.73510495 287.38315773 -29.63059098 294.55198651 -29.6640625 302.01953125 C-29.66897705 303.30875488 -29.6738916 304.59797852 -29.67895508 305.92626953 C-29.79014293 314.94788103 -30.39361733 323.1458366 -32.9765625 331.83203125 C-33.316875 333.05148437 -33.6571875 334.2709375 -34.0078125 335.52734375 C-43.47495833 366.6793709 -66.9422371 390.26426542 -94.99560547 405.75976562 C-122.27671281 420.29733217 -152.54326333 422.56536376 -182.9765625 421.83203125 C-183.66766113 421.81946289 -184.35875977 421.80689453 -185.07080078 421.79394531 C-223.15072242 420.98531426 -262.93394007 412.45087981 -292.9765625 387.83203125 C-293.83894531 387.13464844 -294.70132813 386.43726563 -295.58984375 385.71875 C-316.93689046 367.55882068 -328.50697904 340.39217782 -330.9765625 312.83203125 C-332.39327236 289.71567689 -327.02457741 267.52016013 -317.5390625 246.51953125 C-317.16676514 245.68252686 -316.79446777 244.84552246 -316.41088867 243.9831543 C-314.64055997 240.0977668 -312.80515233 236.45676512 -310.421875 232.91015625 C-308.07611884 229.26297747 -306.5460857 226.21332386 -305.9765625 221.83203125 C-307.93045147 215.62331979 -312.25932808 210.47174414 -316.13183594 205.34423828 C-319.12555579 201.26729581 -321.72475491 196.96331197 -324.3515625 192.64453125 C-324.88749023 191.77658936 -325.42341797 190.90864746 -325.97558594 190.0144043 C-372.59236996 114.42428159 -372.59236996 114.42428159 -381.9765625 72.83203125 C-382.20214844 71.83945313 -382.42773438 70.846875 -382.66015625 69.82421875 C-386.32545825 50.46131302 -385.55611351 29.85130896 -374.9765625 12.83203125 C-363.59925645 -2.08488113 -347.48561254 -10.52968941 -328.9765625 -13.16796875 C-312.03019795 -14.8159249 -296.98082081 -11.93435802 -283.421875 -1.1328125 C-243.90460128 32.91930634 -236.01196312 96.96311321 -226.3515625 145.26953125 C-226.17712616 146.14163239 -226.00268982 147.01373352 -225.82296753 147.91226196 C-225.33557944 150.36248288 -224.85368654 152.81369063 -224.375 155.265625 C-224.23178818 155.99169952 -224.08857635 156.71777405 -223.94102478 157.46585083 C-223.39374244 160.30972567 -222.9765625 162.92772634 -222.9765625 165.83203125 C-221.9865625 165.50203125 -220.9965625 165.17203125 -219.9765625 164.83203125 C-193.32966345 161.60138011 -164.60274514 160.73834167 -137.9765625 164.83203125 C-137.86699219 164.07736572 -137.75742188 163.3227002 -137.64453125 162.54516602 C-117.95686596 28.48296958 -117.95686596 28.48296958 -79.5390625 -2.98046875 C-55.68741228 -20.51844686 -23.21654104 -16.90968541 0 0 Z M-68.9765625 25.83203125 C-71.62562313 29.00115287 -73.83461926 32.30297145 -75.9765625 35.83203125 C-76.61207031 36.86328125 -77.24757813 37.89453125 -77.90234375 38.95703125 C-102.20879297 80.29699362 -106.37537651 138.49843048 -112.9453125 185.08203125 C-113.10403336 186.19915749 -113.10403336 186.19915749 -113.26596069 187.33885193 C-113.66200572 190.19939953 -113.9765625 192.93994733 -113.9765625 195.83203125 C-115.22566406 195.63867188 -116.47476563 195.4453125 -117.76171875 195.24609375 C-137.83940146 192.21170784 -157.66232249 190.43153145 -177.9765625 190.83203125 C-178.12689941 191.58073486 -178.27723633 192.32943848 -178.43212891 193.10083008 C-181.51279873 208.3050883 -184.81731227 223.1916639 -189.9765625 237.83203125 C-190.19747559 238.47897949 -190.41838867 239.12592773 -190.64599609 239.79248047 C-196.50355323 256.88466621 -203.70331032 274.47000299 -214.24316406 289.21655273 C-216.00269684 291.88914984 -217.1150344 293.6927672 -216.7199707 296.94311523 C-215.96546511 299.33970272 -215.03211237 301.55214711 -213.9765625 303.83203125 C-213.63334961 304.61940674 -213.29013672 305.40678223 -212.93652344 306.21801758 C-212.19102721 307.90875621 -211.43323462 309.59411147 -210.66503906 311.2746582 C-198.62770401 337.68678896 -190.98824665 365.29132997 -185.9765625 393.83203125 C-183.6117238 393.94253943 -183.6117238 393.94253943 -180.9765625 392.83203125 C-179.24005126 390.22027236 -177.88670071 387.81523852 -176.53515625 385.01171875 C-176.13075821 384.20960464 -175.72636017 383.40749054 -175.30970764 382.58106995 C-173.99473962 379.96424752 -172.70471662 377.33591779 -171.4140625 374.70703125 C-170.51232818 372.904072 -169.60867565 371.10207088 -168.703125 369.30102539 C-166.91939946 365.74978781 -165.14347616 362.19484302 -163.37451172 358.63623047 C-160.47471524 352.81230773 -157.49666141 347.03206058 -154.4765625 341.26953125 C-154.01741455 340.38982666 -153.5582666 339.51012207 -153.08520508 338.60375977 C-150.17538629 333.05082525 -147.19860627 327.53669179 -144.18432617 322.03979492 C-143.14761311 320.14339199 -142.11881137 318.24263763 -141.09887695 316.3371582 C-139.06792887 312.55269512 -137.06692868 308.85360351 -134.57421875 305.3515625 C-132.59111894 302.34649714 -131.41231435 300.41003814 -130.9765625 296.83203125 C-132.85967187 291.74983843 -135.63251014 287.50917969 -138.60546875 283.00341797 C-152.62341319 260.80334713 -161.03633251 232.01743647 -161.9765625 205.83203125 C-160.9865625 205.17203125 -159.9965625 204.51203125 -158.9765625 203.83203125 C-158.70255112 204.56980301 -158.42853973 205.30757477 -158.14622498 206.06770325 C-157.05070496 208.65680627 -155.84390128 210.74749362 -154.26196289 213.0612793 C-153.71701675 213.86369553 -153.17207062 214.66611176 -152.61061096 215.49284363 C-151.72634682 216.78029228 -151.72634682 216.78029228 -150.82421875 218.09375 C-150.20945175 218.99841507 -149.59468475 219.90308014 -148.96128845 220.8351593 C-146.99170739 223.73304048 -145.0160901 226.62672613 -143.0390625 229.51953125 C-133.9943067 242.75810405 -125.17850111 256.05187812 -116.9765625 269.83203125 C-114.31937172 266.64631489 -112.12757757 263.53751709 -110.19921875 259.8671875 C-109.69269775 258.91376465 -109.18617676 257.9603418 -108.66430664 256.97802734 C-108.12797607 255.96047363 -107.59164551 254.94291992 -107.0390625 253.89453125 C-98.16575734 237.30842113 -88.58705468 221.25312242 -78.42041016 205.4309082 C-60.75305505 177.80527951 -44.7591635 149.09020304 -29.9765625 119.83203125 C-29.50057617 118.89617187 -29.02458984 117.9603125 -28.53417969 116.99609375 C-16.03814562 92.27587552 -2.90145118 62.93570691 -8.6328125 34.5859375 C-11.04326843 27.75977565 -15.31672088 22.85868876 -21.62890625 19.36328125 C-24.37739454 18.06632656 -27.13880101 16.91793101 -29.9765625 15.83203125 C-31.0696875 15.39890625 -32.1628125 14.96578125 -33.2890625 14.51953125 C-48.80654477 11.62644134 -58.278128 14.57144584 -68.9765625 25.83203125 Z M-350.7890625 27.70703125 C-355.45851173 34.37767301 -356.48512366 40.4557483 -356.3515625 48.39453125 C-356.34213623 49.27004639 -356.33270996 50.14556152 -356.32299805 51.04760742 C-355.48930174 87.44127451 -332.80513363 123.7031559 -314.6953125 153.95019531 C-313.01146837 156.77350441 -311.34976842 159.60860543 -309.6953125 162.44921875 C-307.03142709 167.0196262 -304.33019812 171.56611565 -301.60644531 176.10107422 C-300.51192764 177.93499792 -299.42806025 179.77531643 -298.35449219 181.62158203 C-290.74072172 194.6922668 -282.33199328 205.06685896 -271.3984375 215.5078125 C-266.07889872 220.61299856 -261.61821793 226.15049183 -257.27001953 232.08544922 C-255.88706103 233.95288696 -254.46532912 235.78569298 -253.03515625 237.6171875 C-245.57181399 247.24803808 -239.14911824 257.33382621 -232.9765625 267.83203125 C-230.21938868 265.37451666 -228.65286723 262.70942243 -226.89453125 259.4765625 C-226.29946777 258.39141357 -225.7044043 257.30626465 -225.09130859 256.18823242 C-224.77764343 255.61124603 -224.46397827 255.03425964 -224.14080811 254.43978882 C-222.46970908 251.36831027 -220.77977068 248.3072425 -219.08984375 245.24609375 C-218.74542236 244.62169907 -218.40100098 243.99730438 -218.04614258 243.35398865 C-211.35412852 231.25221029 -204.26568387 219.37306751 -197.2109375 207.48046875 C-196.60523926 206.45864502 -195.99954102 205.43682129 -195.37548828 204.3840332 C-194.21481365 202.42801051 -193.05181876 200.47336231 -191.88623047 198.52026367 C-191.37205566 197.65506104 -190.85788086 196.7898584 -190.328125 195.8984375 C-189.87260254 195.13474854 -189.41708008 194.37105957 -188.94775391 193.58422852 C-187.89576519 192.02015045 -187.89576519 192.02015045 -187.9765625 190.83203125 C-201.12335441 191.11056498 -214.06575478 192.17379983 -227.1015625 193.83203125 C-227.81086914 193.92166138 -228.52017578 194.0112915 -229.25097656 194.1036377 C-237.67802946 195.11121448 -237.67802946 195.11121448 -245.9765625 196.83203125 C-246.21221924 195.02037476 -246.21221924 195.02037476 -246.45263672 193.17211914 C-248.43269677 178.41835104 -251.15666916 163.85806231 -254.1015625 149.26953125 C-254.34233521 148.0704715 -254.58310791 146.87141174 -254.83117676 145.63601685 C-260.45501448 117.71231296 -266.44303477 89.72829663 -275.9765625 62.83203125 C-276.21938965 62.13964355 -276.4622168 61.44725586 -276.71240234 60.73388672 C-282.98334496 43.15722004 -291.97355825 25.08467011 -308.9765625 15.83203125 C-323.67580911 10.93228238 -340.61183557 16.65918609 -350.7890625 27.70703125 Z M-84.9765625 227.83203125 C-85.04125732 228.50967529 -85.10595215 229.18731934 -85.17260742 229.88549805 C-87.11377858 249.64878656 -90.32119043 268.35500519 -97.09692383 287.0625 C-99.07831333 292.34684725 -99.07831333 292.34684725 -98.9765625 297.83203125 C-97.48503346 300.76946703 -95.68072411 303.47069203 -93.8515625 306.20703125 C-92.75307172 307.89314119 -91.65681798 309.5807101 -90.5625 311.26953125 C-89.68996582 312.61144531 -89.68996582 312.61144531 -88.79980469 313.98046875 C-84.97212196 319.96698915 -81.34779762 326.08076835 -77.69873047 332.17724609 C-75.01775482 336.62179741 -72.39159747 340.89804488 -68.9765625 344.83203125 C-62.55804168 333.13085144 -57.8752304 321.31204973 -56.9765625 307.83203125 C-56.91339844 307.09984375 -56.85023438 306.36765625 -56.78515625 305.61328125 C-55.52120897 279.19270575 -69.12415305 249.1291271 -83.9765625 227.83203125 C-84.3065625 227.83203125 -84.6365625 227.83203125 -84.9765625 227.83203125 Z M-279.9765625 233.83203125 C-296.32133706 263.04074875 -308.61414117 294.25301056 -299.9765625 327.83203125 C-296.48131971 339.20117262 -291.0523361 350.02209642 -282.9765625 358.83203125 C-280.65078943 355.88585111 -278.8333021 352.87786671 -277.078125 349.5625 C-276.5224585 348.51956787 -275.96679199 347.47663574 -275.39428711 346.40209961 C-274.80268799 345.28585205 -274.21108887 344.16960449 -273.6015625 343.01953125 C-267.82543364 332.19999249 -261.88680427 321.48611312 -255.81640625 310.828125 C-255.3457373 309.99007324 -254.87506836 309.15202148 -254.39013672 308.28857422 C-253.43899286 306.63565376 -252.44986492 305.00407925 -251.42626953 303.39501953 C-248.59240768 299.00220942 -248.59240768 299.00220942 -248.3203125 293.96875 C-248.866875 292.93363281 -249.4134375 291.89851563 -249.9765625 290.83203125 C-250.79955669 289.10941203 -251.62246325 287.38675096 -252.4453125 285.6640625 C-253.45107586 283.65521558 -254.461753 281.64882354 -255.4765625 279.64453125 C-256.27743286 278.0524585 -256.27743286 278.0524585 -257.09448242 276.42822266 C-260.82288524 269.0422971 -264.63706167 261.70474847 -268.51513672 254.39648438 C-272.11937948 247.59847796 -275.57616217 240.73416834 -278.9765625 233.83203125 C-279.3065625 233.83203125 -279.6365625 233.83203125 -279.9765625 233.83203125 Z M-234.9765625 322.83203125 C-236.50929906 324.57460674 -238.00140858 326.3529477 -239.4765625 328.14453125 C-239.93015137 328.69141602 -240.38374023 329.23830078 -240.85107422 329.80175781 C-242.95945075 332.34947145 -245.03903757 334.9118089 -247.078125 337.515625 C-251.80045712 343.50514662 -256.90085681 348.93777548 -262.2890625 354.33203125 C-262.98338379 355.0271582 -263.67770508 355.72228516 -264.39306641 356.43847656 C-267.46393997 359.47576827 -270.47252501 362.29344589 -273.9765625 364.83203125 C-271.12643054 372.62239195 -258.91612758 377.06968424 -251.7265625 380.51953125 C-235.39817606 388.01211989 -214.99021226 393.66059776 -196.9765625 392.83203125 C-203.26322779 380.08776416 -209.79906823 367.47700191 -216.38232422 354.88378906 C-217.86644794 352.04281716 -219.34583823 349.19943212 -220.82421875 346.35546875 C-226.90735833 334.30374554 -226.90735833 334.30374554 -233.9765625 322.83203125 C-234.3065625 322.83203125 -234.6365625 322.83203125 -234.9765625 322.83203125 Z M-112.9765625 324.83203125 C-114.30283479 326.65681006 -114.30283479 326.65681006 -115.59375 329.046875 C-116.37129639 330.40534546 -116.37129639 330.40534546 -117.16455078 331.79125977 C-117.72126465 332.77408936 -118.27797852 333.75691895 -118.8515625 334.76953125 C-131.55797217 356.7058684 -146.96394526 376.01309807 -164.9765625 393.83203125 C-130.22334222 392.99258148 -102.21193876 382.14453534 -77.9765625 356.83203125 C-81.74384235 352.9510222 -85.71398768 349.43649485 -89.8515625 345.95703125 C-97.01980115 339.86296073 -103.48277657 333.58769529 -109.49609375 326.3359375 C-110.22892578 325.59150391 -110.22892578 325.59150391 -110.9765625 324.83203125 C-111.6365625 324.83203125 -112.2965625 324.83203125 -112.9765625 324.83203125 Z " fill="#000000" transform="translate(383.9765625,14.16796875)"/>
</svg>
